<?xml version="1.0" encoding="UTF-8" standalone="no"?>
<!-- Created with Inkscape (http://www.inkscape.org/) -->

<svg
   version="1.1"
   id="svg2"
   width="1066.6667"
   height="666.66669"
   viewBox="0 0 1066.6667 666.66669"
   sodipodi:docname="34430285_380826233828.eps"
   xmlns:inkscape="http://www.inkscape.org/namespaces/inkscape"
   xmlns:sodipodi="http://sodipodi.sourceforge.net/DTD/sodipodi-0.dtd"
   xmlns="http://www.w3.org/2000/svg"
   xmlns:svg="http://www.w3.org/2000/svg">
  <defs
     id="defs6" />
  <sodipodi:namedview
     id="namedview4"
     pagecolor="#ffffff"
     bordercolor="#000000"
     borderopacity="0.25"
     inkscape:showpageshadow="2"
     inkscape:pageopacity="0.0"
     inkscape:pagecheckerboard="0"
     inkscape:deskcolor="#d1d1d1" />
  <g
     id="g8"
     inkscape:groupmode="layer"
     inkscape:label="ink_ext_XXXXXX"
     transform="matrix(1.3333333,0,0,-1.3333333,0,666.66667)">
    <g
       id="g10"
       transform="scale(0.1)">
      <path
         d="M 8000,0 H 0 V 5000 H 8000 V 0"
         style="fill:#ffffff;fill-opacity:1;fill-rule:nonzero;stroke:none"
         id="path12" />
      <path
         d="M 0,3897.09 332.996,3685.96 C 667.004,3474.8 1333,3052.52 2000,2941.82 c 667,-109.57 1333,91.3 2000,376.63 667,285.32 1333,655.11 2000,856 667,202 1333,236.24 1667,253.36 l 333,17.12 V 690 c -1677.15,0 -3354.3,0 -5031.45,0 -838.57,0 -1677.14,0 -2515.718,0 C 412.449,690 0,688.051 0,692.352 c 0,20.468 0,40.937 0,61.398 0,105.379 0,210.77 0,316.14 0,942.4 0,1884.8 0,2827.2"
         style="fill:#4053ad;fill-opacity:1;fill-rule:nonzero;stroke:none"
         id="path14" />
      <path
         d="m 0,1570 c 669.629,146.8 1339.19,294.71 2000,478 997.44,276.65 1977.12,662.28 3000,837.62 502.58,86.15 1004.94,92.28 1506.15,-6.21 C 6903.59,2801.32 7287.94,2673.73 7667,2533 l 333,-123 V 690 c -2666.67,0 -5333.33,0 -8000,0 v 880"
         style="fill:#819fd9;fill-opacity:1;fill-rule:nonzero;stroke:none"
         id="path16" />
      <path
         d="m 0,2330 332.996,-48.3 C 667.004,2234.24 1333,2137.65 2000,2118.17 c 667,-19.5 1333,36.42 2000,-11.04 667,-48.28 1333,-200.81 2000,-283 667,-81.35 1333,-93.23 1667,-98.3 l 333,-5.94 V 720 c -2666.67,0 -5333.33,0 -8000,0 v 1610"
         style="fill:#c3d6f1;fill-opacity:1;fill-rule:nonzero;stroke:none"
         id="path18" />
      <path
         d="M 0,1860 332.996,1723 C 667.004,1587 1333,1313 2000,1330 c 483.1,12.31 947.57,169.68 1409,297.39 500.19,138.42 997.88,212.54 1517.85,179.98 C 5863.03,1748.74 6780.38,1457.33 7667,1168 l 333,-108 V 660 c -2666.67,0 -5333.33,0 -8000,0 v 1200"
         style="fill:#ffffff;fill-opacity:1;fill-rule:nonzero;stroke:none"
         id="path20" />
    </g>
  </g>
</svg>
